<svg height="480pt" viewBox="0 0 480 480" width="480pt" xmlns="http://www.w3.org/2000/svg"><path d="m288 280c0 8.835938-7.164062 16-16 16h-22.222656v.34375c-1.917969-.222656-3.847656-.339844-5.777344-.34375-13.4375 0-26.34375 5.226562-36 14.566406v-14.566406c0-4.417969-3.582031-8-8-8h-48c-19.6875.03125-37.910156 10.398438-48 27.304688-11.546875-19.378907-33.601562-29.925782-55.933594-26.75-22.332031 3.175781-40.570312 19.457031-46.253906 41.285156-5.679688 21.832031 2.304688 44.9375 20.25 58.601562-13.476562 6.738282-22.0117188 20.492188-22.0625 35.558594v48c0 4.417969 3.582031 8 8 8h64c4.417969 0 8-3.582031 8-8v-48c-.039062-9.527344-3.507812-18.726562-9.777344-25.902344 14.140625-3.746094 26.257813-12.859375 33.777344-25.402344 3.65625 6.085938 8.425781 11.429688 14.0625 15.746094-13.476562 6.738282-22.011719 20.492188-22.0625 35.558594v48c0 4.417969 3.582031 8 8 8h64c4.417969 0 8-3.582031 8-8v-48c-.039062-9.527344-3.507812-18.726562-9.777344-25.902344 13.578125-3.589844 25.316406-12.140625 32.898438-23.960937 3.4375 5.871093 7.984375 11.019531 13.390625 15.152343-12.617188 7.003907-20.460938 20.28125-20.511719 34.710938v48c0 4.417969 3.582031 8 8 8h64c4.417969 0 8-3.582031 8-8v-48c-.027344-10.035156-3.847656-19.6875-10.695312-27.023438 16.957031-5.957031 29.625-20.265624 33.484374-37.820312 3.859376-17.554688-1.644531-35.855469-14.542968-48.371094 13.96875-3.710937 23.710937-16.332031 23.753906-30.785156zm-136 24h40v16h-71.792969c7.492188-10.035156 19.269531-15.964844 31.792969-16zm-56.800781 32h-7.199219c-18.722656.03125-34.929688-13.003906-38.910156-31.296875 2.277344-.4375 4.589844-.671875 6.910156-.703125 19 .023438 35.371094 13.386719 39.199219 32zm-63.199219-23.792969v10.992188c-.019531 12.375-5.058594 24.207031-13.960938 32.800781-5.4375-16.078125.222657-33.824219 13.960938-43.792969zm32 151.792969h-48v-40c0-13.253906 10.746094-24 24-24s24 10.746094 24 24zm-8-80c-11.460938-.039062-22.351562-5.023438-29.871094-13.671875 10.933594-9.242187 18.316406-21.996094 20.878906-36.082031 10.601563 11.363281 25.453126 17.796875 40.992188 17.753906h7.199219c-3.828125 18.613281-20.199219 31.976562-39.199219 32zm104 80h-48v-40c0-13.253906 10.746094-24 24-24s24 10.746094 24 24zm-8-80c-12.011719.003906-23.390625-5.394531-30.988281-14.699219-7.601563-9.304687-10.613281-21.53125-8.210938-33.300781h79.199219v8c-.027344 22.082031-17.917969 39.972656-40 40zm104 80h-48v-40c0-13.253906 10.746094-24 24-24s24 10.746094 24 24zm-12-80c-19.882812 0-36-16.117188-36-36s16.117188-36 36-36 36 16.117188 36 36c-.023438 19.875-16.125 35.976562-36 36zm0 0"/><path d="m360 56c0 30.929688 25.070312 56 56 56s56-25.070312 56-56-25.070312-56-56-56c-30.910156.0390625-55.960938 25.089844-56 56zm96 0c.019531 20.550781-15.535156 37.773438-35.980469 39.835938-20.445312 2.066406-39.128906-11.695313-43.21875-31.835938h7.199219c25.257812-.046875 47.367188-16.976562 53.992188-41.351562 11.222656 7.386718 17.988281 19.914062 18.007812 33.351562zm-40-40c2.347656.03125 4.6875.265625 6.992188.703125-4.074219 18.269531-20.273438 31.273437-38.992188 31.296875h-7.199219c3.828125-18.613281 20.199219-31.976562 39.199219-32zm0 0"/><path d="m480 456v-304c0-13.253906-10.746094-24-24-24h-72c-12.507812.035156-23.847656 7.355469-29.03125 18.734375l-.160156-.148437-39.535156 43.015624-27.273438-27.265624v-154.335938c0-4.417969-3.582031-8-8-8h-272c-4.417969 0-8 3.582031-8 8v200c0 4.417969 3.582031 8 8 8h265.792969l25.230469 25.230469c2.078124 2.058593 4.519531 3.710937 7.199218 4.875-3.414062 7.410156-2.8125 16.050781 1.597656 22.914062 4.414063 6.867188 12.019532 11.003907 20.179688 10.980469h24v176c0 13.253906 10.746094 24 24 24s24-10.746094 24-24v-176h32v176c0 13.253906 10.746094 24 24 24s24-10.746094 24-24zm-16-192h-50.167969c21.089844-11.695312 38.472657-29.078125 50.167969-50.167969zm-80-120h49.472656c-.949218 2.5625-1.445312 5.269531-1.472656 8-.046875 38-26.777344 70.746094-64 78.398438v-70.398438c0-8.835938 7.164062-16 16-16zm-32 88h-10.503906l10.503906-11.414062zm-336-32v-184h256v130.335938l-3.71875-3.71875c-6.339844-6.292969-15.65625-8.53125-24.160156-5.808594l-66.464844-66.464844-11.3125 11.3125 64.855469 64.855469c-6.1875 9.496093-4.878907 22.03125 3.144531 30.039062l23.449219 23.449219zm229.65625-34.761719c-3.03125-3.136719-2.988281-8.128906.097656-11.210937 3.085938-3.085938 8.074219-3.132813 11.214844-.097656l52.886719 52.886718c1.542969 1.542969 3.648437 2.386719 5.828125 2.339844 2.183594-.046875 4.25-.980469 5.722656-2.589844l30.59375-33.277344v23.640626l-30.113281 32.757812c-1.523438 1.632812-3.652344 2.566406-5.886719 2.585938-2.125.011718-4.164062-.835938-5.65625-2.34375zm74.34375 90.761719c0-4.417969 3.582031-8 8-8h24c52.996094-.058594 95.941406-43.003906 96-96 0-4.417969 3.582031-8 8-8s8 3.582031 8 8c-.066406 61.828125-50.171875 111.933594-112 112h-24c-4.417969 0-8-3.582031-8-8zm64 200c0 4.417969-3.582031 8-8 8s-8-3.582031-8-8v-176h16zm80 0c0 4.417969-3.582031 8-8 8s-8-3.582031-8-8v-176h16zm0 0"/></svg>