<svg height="480pt" viewBox="-8 0 480 480" width="480pt" xmlns="http://www.w3.org/2000/svg"><path d="m432 0h-120c-17.671875 0-32 14.328125-32 32v128c0 17.671875 14.328125 32 32 32h40v32c0 3.234375 1.949219 6.152344 4.9375 7.390625s6.429688.550781 8.71875-1.734375l37.65625-37.65625h28.6875c17.671875 0 32-14.328125 32-32v-128c0-17.671875-14.328125-32-32-32zm16 160c0 8.835938-7.164062 16-16 16h-32c-2.121094 0-4.15625.84375-5.65625 2.34375l-26.34375 26.34375v-20.6875c0-4.417969-3.582031-8-8-8h-48c-8.835938 0-16-7.164062-16-16v-128c0-8.835938 7.164062-16 16-16h120c8.835938 0 16 7.164062 16 16zm0 0"/><path d="m312 40h72v16h-72zm0 0"/><path d="m400 40h32v16h-32zm0 0"/><path d="m312 72h120v16h-120zm0 0"/><path d="m312 104h32v16h-32zm0 0"/><path d="m360 104h72v16h-72zm0 0"/><path d="m312 136h72v16h-72zm0 0"/><path d="m56 248c-30.914062.035156-55.9648438 25.085938-56 56v176h16v-176c.027344-22.082031 17.917969-39.972656 40-40h19.054688l-18.214844 36.425781c-1.046875 2.078125-1.140625 4.507813-.25 6.660157.890625 2.152343 2.671875 3.808593 4.882812 4.539062l16.40625 5.464844-5.464844 16.414062c-.90625 2.714844-.296874 5.707032 1.601563 7.847656l64 72c.121094.136719.3125.191407.441406.320313.527344.511719 1.125.953125 1.773438 1.304687.257812.15625.527343.292969.800781.414063 1.898438.855469 4.070312.855469 5.96875 0 .273438-.121094.542969-.257813.800781-.414063.648438-.351562 1.246094-.792968 1.773438-1.304687.128906-.128906.320312-.183594.441406-.320313l64-72c1.898437-2.140624 2.507813-5.132812 1.601563-7.847656l-5.464844-16.414062 16.40625-5.464844c2.210937-.730469 3.996094-2.386719 4.882812-4.539062.890625-2.152344.800782-4.582032-.25-6.660157l-18.246094-36.425781h19.054688c22.082031.027344 39.972656 17.917969 40 40h16c-.035156-30.914062-25.085938-55.964844-56-56h-40v-40.152344c20.121094-15.058594 31.976562-38.714844 32-63.847656 17.242188.007812 31.375-13.679688 31.921875-30.910156.550781-17.234375-12.683594-31.789063-29.890625-32.882813l3.625-29.007812c1.792969-13.957031-3.011719-27.957031-12.992188-37.878907-8.570312-8.507812-20.148437-13.2929682-32.222656-13.320312h-128.441406c-4.417969 0-8 3.582031-8 8v16c.035156 12.640625 6.0625 24.511719 16.246094 32h-.246094v24c-17.671875 0-32 14.328125-32 32s14.328125 32 32 32c.023438 25.132812 11.878906 48.789062 32 63.847656v40.152344zm168-144v-7.503906l.0625-.496094c8.839844.019531 15.988281 7.195312 15.96875 16.03125-.015625 8.835938-7.195312 15.988281-16.03125 15.96875zm-160 24c-8.835938 0-16-7.164062-16-16s7.164062-16 16-16zm72 218.167969-21.601562-82.167969h21.601562zm-24-98.167969v-30.726562c20.390625 8.96875 43.609375 8.96875 64 0v30.726562zm40 16h21.601562l-21.601562 82.167969zm43.054688 0 17.664062 35.328125-15.246094 5.078125c-4.191406 1.402344-6.453125 5.929688-5.058594 10.121094l6.53125 19.617187-38.699218 43.527344 29.921875-113.671875zm-131.054688-240v-8h120.441406c7.835938.023438 15.351563 3.136719 20.910156 8.664062 6.472657 6.441407 9.585938 15.519532 8.433594 24.574219l-1.882812 14.992188-4.46875-11.199219c-1.214844-3.039062-4.160156-5.03125-7.433594-5.03125h-112c-13.253906 0-24-10.746094-24-24zm16 120v-80.800781c2.632812.535156 5.3125.804687 8 .800781h106.585938l13.414062 33.542969v46.457031c0 35.347656-28.652344 64-64 64s-64-28.652344-64-64zm17.832031 120 29.921875 113.671875-38.699218-43.527344 6.53125-19.617187c1.394531-4.191406-.867188-8.71875-5.058594-10.121094l-15.246094-5.078125 17.664062-35.328125zm0 0"/><path d="m192 108c0 6.628906-5.371094 12-12 12s-12-5.371094-12-12 5.371094-12 12-12 12 5.371094 12 12zm0 0"/><path d="m120 108c0 6.628906-5.371094 12-12 12s-12-5.371094-12-12 5.371094-12 12-12 12 5.371094 12 12zm0 0"/><path d="m142.207031 168c11.808594-.003906 23.125-4.714844 31.449219-13.089844l-11.3125-11.308594c-7.644531 7.695313-19 10.371094-29.28125 6.902344l-2.535156-.839844-5.054688 15.199219 2.527344.847657c4.582031 1.523437 9.378906 2.292968 14.207031 2.289062zm0 0"/><path d="m136 432h16v16h-16zm0 0"/><path d="m456 320h-64v-16c0-8.835938-7.164062-16-16-16h-48c-8.835938 0-16 7.164062-16 16v16h-64c-4.417969 0-8 3.582031-8 8v144c0 4.417969 3.582031 8 8 8h208c4.417969 0 8-3.582031 8-8v-144c0-4.417969-3.582031-8-8-8zm-128-16h48v16h-48zm120 160h-192v-61.167969l93.648438 28.800781c1.53125.46875 3.171874.46875 4.703124 0l93.648438-28.800781zm0-77.910156-96 29.542968-96-29.542968v-50.089844h192zm0 0"/><path d="m344 384h16v16h-16zm0 0"/></svg>