<?xml version="1.0"?>
<svg xmlns="http://www.w3.org/2000/svg" xmlns:xlink="http://www.w3.org/1999/xlink" version="1.1" id="Capa_1" x="0px" y="0px" width="512px" height="512px" viewBox="0 0 530.647 530.647" style="enable-background:new 0 0 530.647 530.647;" xml:space="preserve"><g><g>
	<path d="M479.988,372.745c-7.3-14.7-30.6-29.4-47.7-26.9c0-1.2,0-3.1,0-4.3c0-9.8-9.8-12.2-16.5-8c-0.6-0.6-1.2-1.2-1.8-1.2   c-53.9-29.399-118.7-35.5-179.3-37.3c-45.3-1.2-135.9-3.1-169.5,33.7c-3.7-1.8-7.3-3.7-10.4-6.101c-6.1-3.699-12.9,4.301-9.2,9.2   c-0.6,0.601-0.6,1.8-0.6,3.101c-6.2,109.399,80.1,186.5,185.3,195.1c55.701,4.3,105.901-14.7,142-48.3c14.7,3.1,37.3-1.2,53.9-7.3   c3.7-0.601,6.7-1.801,9.8-3.101c19-8,34.3-23.899,42.8-42.2C487.388,411.344,489.188,391.144,479.988,372.745z M426.188,388.644   c14.7,7.301,25.1,19.601,14.7,38.601c-8.601,15.3-25.7,23.3-43.5,25.7C410.888,434.544,420.688,412.544,426.188,388.644z    M88.987,340.344c14.7-4.3,29.4-11,44.7-14.1c29.4-6.101,59.4-8,89.4-8.601c52.601-1.199,110.2,3.7,159.7,23.9   C296.388,376.445,175.887,377.044,88.987,340.344z" data-original="#000000" class="active-path" data-old_color="#000000" fill="#FAEAAB"/>
	<path d="M161.188,256.444c-21.4-9.8-36.7-19-36.7-44.7c0-15.9,4.9-31.2,6.1-47.1c3.1-28.2-17.7-55.1-48.3-50.2   c-8,1.8-8,13.5-1.8,17.1c15.3,9.2,28.8,8.6,28.8,29.4c0,15.9-4.9,31.2-5.5,46.5c-2.4,33.7,20.8,56.3,52.6,61.2   C162.987,270.544,168.487,259.544,161.188,256.444z" data-original="#000000" class="active-path" data-old_color="#000000" fill="#FAEAAB"/>
	<path d="M271.288,184.844c9.8-12.9,16.5-25.7,16.5-41.6c-1.2-51.4-85.1-73.4-36.7-124.2c9.8-10.4-5.5-25.7-15.9-15.9   c-16.5,15.3-34.9,37.3-24.5,61.2c12.9,30,61.201,52.6,53.2,89.4c-4.9,24.5-40.4,41-39.2,67.9c1.2,24.5,23.3,31.2,44.701,30.6   c3.699,0,4.899-4.9,1.8-6.1C237.688,225.844,251.087,210.544,271.288,184.844z" data-original="#000000" class="active-path" data-old_color="#000000" fill="#FAEAAB"/>
	<path d="M427.988,50.245c-22,20.8-33.7,42.8-22,72.2c4.9,13.5,21.4,37.9,4.9,50.2c-10.4,8-26.9,9.8-39.2,12.9   c-13.5,3.1-40.4,8-44.101,24.5c-5.5,21.4,16.5,36.1,32.4,44.1c6.1,3.1,11-4.3,6.7-9.2c-3.7-4.3-27.5-25.1-17.101-31.2   c8-4.9,19-6.1,27.5-8.6c16.5-3.7,34.301-6.7,47.7-16.5c11.601-8.6,16.5-28.8,12.9-42.2c-8-34.3-26.9-49,4.899-81.4   C451.888,55.145,437.188,41.044,427.988,50.245z" data-original="#000000" class="active-path" data-old_color="#000000" fill="#FAEAAB"/>
</g></g> </svg>
